<?xml version="1.0" encoding="UTF-8" standalone="no"?>
<svg
   xmlns:dc="http://purl.org/dc/elements/1.1/"
   xmlns:cc="http://creativecommons.org/ns#"
   xmlns:rdf="http://www.w3.org/1999/02/22-rdf-syntax-ns#"
   xmlns:svg="http://www.w3.org/2000/svg"
   xmlns="http://www.w3.org/2000/svg"
   xmlns:xlink="http://www.w3.org/1999/xlink"
   version="1.1"
   width="492"
   height="483">
  <defs>
    <linearGradient
       x1="0"
       y1="0"
       x2="1"
       y2="0"
       id="linearGradient86"
       gradientUnits="userSpaceOnUse"
       gradientTransform="matrix(448.34326,0,0,-448.34326,31.847168,256.01758)"
       spreadMethod="pad">
      <stop
         style="stop-color:#de5732"
         offset="0" />
      <stop
         style="stop-color:#d43500"
         offset="1" />
    </linearGradient>
    <linearGradient
       x1="0"
       y1="0"
       x2="1"
       y2="0"
       id="linearGradient118"
       gradientUnits="userSpaceOnUse"
       gradientTransform="matrix(-292.41898,506.48447,506.48447,292.41898,381.70215,-9.6103516)"
       spreadMethod="pad">
      <stop
         style="stop-color:#000000;stop-opacity:0.25098041"
         offset="0" />
      <stop
         style="stop-color:#000000;stop-opacity:0"
         offset="0.5" />
      <stop
         style="stop-color:#000000;stop-opacity:0"
         offset="1" />
    </linearGradient>
    <linearGradient
       x1="0"
       y1="0"
       x2="1"
       y2="0"
       id="linearGradient4180"
       xlink:href="#linearGradient118"
       gradientUnits="userSpaceOnUse"
       gradientTransform="matrix(-292.41898,-506.48447,506.48447,-292.41898,371.70227,506.64634)"
       spreadMethod="pad" />
    <linearGradient
       x1="0"
       y1="0"
       x2="1"
       y2="0"
       id="linearGradient4183"
       xlink:href="#linearGradient86"
       gradientUnits="userSpaceOnUse"
       gradientTransform="matrix(448.34326,0,0,448.34326,21.84729,241.01841)"
       spreadMethod="pad" />
    <filter
       color-interpolation-filters="sRGB"
       id="filter4303">
      <feGaussianBlur
         stdDeviation="8.9096166" />
    </filter>
  </defs>
  <path
     d="m 53.231122,21.37499 c -6.616,-0.708 -12.753,1.177 -17.244,3.783 l 0,0 c -4.469,2.594 -11.794,8.023 -13.211,15.576 l 0,0 c -1.428,7.564 -1.657,17.962 2.594,44.876 l 0,0 c 4.251,26.923 16.525,82.175 41.083,130.802 l 0,0 c 24.558,48.626 67.307998,109.579 128.686998,155.132 l 0,0 c 61.401,45.572 113.111,63.015 129.615,68.495 l 0,0 c 16.566,5.418 59.015,15.358 74.393,17.692 l 0,0 c 15.336,2.334 38.989,3.313 46.303,3.042 l 0,0 c 7.293,-0.229 16.732,-6.126 17.483,-7.272 l 0,0 c 0.709,-1.231 3.73,-11.586 5.147,-15.859 l 0,0 c 1.459,-4.229 1.896,-4.709 1.896,-10.836 l 0,0 0,-59.722 c 0,-21.755 0.48,-28.799 0,-30.466 l 0,0 c -0.437,-1.687 -4,-8.065 -7.584,-13.003 l 0,0 c -3.522,-4.981 -3.252,-5.418 -13.92,-6.606 l 0,0 c -10.608,-1.188 -28.528,-3.292 -45.054,-6.377 l 0,0 c -16.566,-3.041 -32.362,-9.918 -44.177,-13.44 l 0,0 c -11.794,-3.563 -12.732,-1.896 -18.4,3.042 l 0,0 c -5.688,4.98 -26.694,25.757 -51.491,50.304 l 0,0 c -25.257,-13.003 -48.158,-30.446 -71.548,-50.304 l 0,0 c -23.372,-19.838 -40.375,-41.78 -52.649,-57.128 l 0,0 c -12.285,-15.358 -24.558,-36.853 -24.558,-36.853 l 0,0 c 0,0 42.031,-43.208 49.116,-53.596 l 0,0 c 7.075,-10.378 4.011,-17.713 -2.356,-34.456 l 0,0 c -6.386,-16.775 -11.814,-44.876 -13.461,-55.023 l 0,0 c -1.656,-10.149 -1.656,-20.547 -2.604,-25.747 l 0,0 c -0.948,-5.199 -7.085,-12.982 -8.961,-14.399 l 0,0 c -1.896,-1.427 -1.667,-1.657 -4.97,-1.657 l 0,0 c 0,0 -30.455,-0.155 -54.773,-0.155 l 0,0 c -24.328998,0 -42.739998,0.864 -49.355998,0.155"
     style="opacity:0.3;filter:url(#filter4303)" />
  <path
     d="m 157.36052,18.37539 c 3.303,0 3.074,0.229 4.97,1.657 1.875,1.417 8.012,9.199 8.961,14.399 0.947,5.199 0.947,15.597 2.604,25.746 1.647,10.148 7.075,38.248 13.462,55.023 6.366,16.744 9.429,24.079 2.355,34.457 -7.085,10.387 -49.117,53.596 -49.117,53.596 0,0 12.274,21.495 24.558,36.853 12.274,15.348 29.278,37.29 52.649,57.128 23.391,19.858 46.291,37.301 71.548,50.304 24.798,-24.547 45.803,-45.324 51.491,-50.304 5.668,-4.939 6.606,-6.606 18.401,-3.042 11.815,3.521 27.611,10.398 44.178,13.44 16.525,3.084 34.445,5.189 45.052,6.376 10.669,1.189 10.399,1.626 13.92,6.607 3.584,4.938 7.148,11.315 7.585,13.003 0.48,1.667 0,8.711 0,30.465 l 0,59.723 c 0,6.126 -0.437,6.607 -1.896,10.836 -1.417,4.273 -4.439,14.628 -5.148,15.858 -0.75,1.147 -10.189,7.043 -17.482,7.273 -7.315,0.27 -30.967,-0.708 -46.303,-3.042 -15.379,-2.334 -57.827,-12.274 -74.393,-17.692 -16.504,-5.481 -68.214,-22.923 -129.615,-68.496 -61.38,-45.552 -104.129998,-106.505 -128.686998,-155.131 -24.558,-48.627 -36.832,-103.88 -41.083,-130.803 -4.251,-26.913 -4.022,-37.311 -2.594,-44.875 1.417,-7.554 8.741,-12.983 13.211,-15.577 4.491,-2.605 10.627,-4.49 17.244,-3.782 6.616,0.708 25.026,-0.156 49.355998,-0.156 24.318,0 54.773,0.156 54.773,0.156"
     style="fill:#ffae9c" />
  <path
     d="m 53.231122,21.37499 c -6.616,-0.708 -12.753,1.177 -17.244,3.783 l 0,0 c -4.469,2.594 -11.794,8.023 -13.211,15.576 l 0,0 c -1.428,7.564 -1.657,17.962 2.594,44.876 l 0,0 c 4.251,26.923 16.525,82.175 41.083,130.802 l 0,0 c 24.558,48.626 67.307998,109.579 128.686998,155.132 l 0,0 c 61.401,45.572 113.111,63.015 129.615,68.495 l 0,0 c 16.566,5.418 59.015,15.358 74.393,17.692 l 0,0 c 15.336,2.334 38.989,3.313 46.303,3.042 l 0,0 c 7.293,-0.229 16.732,-6.126 17.483,-7.272 l 0,0 c 0.709,-1.231 3.73,-11.586 5.147,-15.859 l 0,0 c 1.459,-4.229 1.896,-4.709 1.896,-10.836 l 0,0 0,-59.722 c 0,-21.755 0.48,-28.799 0,-30.466 l 0,0 c -0.437,-1.687 -4,-8.065 -7.584,-13.003 l 0,0 c -3.522,-4.981 -3.252,-5.418 -13.92,-6.606 l 0,0 c -10.608,-1.188 -28.528,-3.292 -45.054,-6.377 l 0,0 c -16.566,-3.041 -32.362,-9.918 -44.177,-13.44 l 0,0 c -11.794,-3.563 -12.732,-1.896 -18.4,3.042 l 0,0 c -5.688,4.98 -26.694,25.757 -51.491,50.304 l 0,0 c -25.257,-13.003 -48.158,-30.446 -71.548,-50.304 l 0,0 c -23.372,-19.838 -40.375,-41.78 -52.649,-57.128 l 0,0 c -12.285,-15.358 -24.558,-36.853 -24.558,-36.853 l 0,0 c 0,0 42.031,-43.208 49.116,-53.596 l 0,0 c 7.075,-10.378 4.011,-17.713 -2.356,-34.456 l 0,0 c -6.386,-16.775 -11.814,-44.876 -13.461,-55.023 l 0,0 c -1.656,-10.149 -1.656,-20.547 -2.604,-25.747 l 0,0 c -0.948,-5.199 -7.085,-12.982 -8.961,-14.399 l 0,0 c -1.896,-1.427 -1.667,-1.657 -4.97,-1.657 l 0,0 c 0,0 -30.455,-0.155 -54.773,-0.155 l 0,0 c -24.328998,0 -42.739998,0.864 -49.355998,0.155"
     style="fill:url(#linearGradient4183)" />
  <path
     d="m 399.14812,457.73099 c 15.336,2.334 38.989,3.313 46.303,3.042 7.293,-0.229 16.733,-6.126 17.483,-7.272 0.709,-1.231 3.73,-11.586 5.147,-15.859 0.334,-0.967 0.612,-1.735 0.846,-2.422 -32.449,-0.766 -141.517,8.338 -294.384,-123.509 -109.120998,-94.117 -119.524998,-263.104 -121.311998,-290.336 -2.056,-0.038 1.252,0.135 0,0 -6.616,-0.708 -12.753,1.178 -17.244,3.783 -4.469,2.594 -11.794,8.022 -13.211,15.576 -1.428,7.564 -1.657,17.963 2.594,44.876 4.251,26.923 16.525,82.176 41.083,130.802 24.558,48.626 67.307998,109.579 128.686998,155.132 61.401,45.572 113.111,63.014 129.615,68.495 16.566,5.418 59.015,15.358 74.393,17.692"
     style="opacity:0.7;fill:url(#linearGradient4180)" />
</svg>